<mxfile host="app.diagrams.net" agent="Mozilla/5.0 (Windows NT 10.0; Win64; x64) AppleWebKit/537.36 (KHTML, like Gecko) Chrome/136.0.0.0 Safari/537.36 Edg/136.0.0.0" version="26.2.14">
  <diagram name="Page-1" id="Wg93g9MDEA-SDL_pjtgO">
    <mxGraphModel dx="2160" dy="1185" grid="1" gridSize="10" guides="1" tooltips="1" connect="1" arrows="1" fold="1" page="1" pageScale="1" pageWidth="850" pageHeight="1100" math="0" shadow="0">
      <root>
        <mxCell id="0" />
        <mxCell id="1" parent="0" />
        <mxCell id="JZK24X55Dp6HFnPvQIlC-84" value="" style="rounded=0;whiteSpace=wrap;html=1;" vertex="1" parent="1">
          <mxGeometry x="50" width="730" height="1360" as="geometry" />
        </mxCell>
        <mxCell id="JZK24X55Dp6HFnPvQIlC-19" value="" style="edgeStyle=orthogonalEdgeStyle;rounded=0;orthogonalLoop=1;jettySize=auto;html=1;entryX=0.563;entryY=-0.017;entryDx=0;entryDy=0;entryPerimeter=0;" edge="1" parent="1" target="JZK24X55Dp6HFnPvQIlC-7">
          <mxGeometry relative="1" as="geometry">
            <mxPoint x="407.016393442623" y="69.77496177345557" as="sourcePoint" />
            <mxPoint x="417.016393442623" y="177" as="targetPoint" />
            <Array as="points">
              <mxPoint x="407" y="123" />
              <mxPoint x="410" y="123" />
              <mxPoint x="410" y="176" />
            </Array>
          </mxGeometry>
        </mxCell>
        <mxCell id="JZK24X55Dp6HFnPvQIlC-2" value="Start" style="ellipse;whiteSpace=wrap;html=1;" vertex="1" parent="1">
          <mxGeometry x="366" y="30" width="80" height="40" as="geometry" />
        </mxCell>
        <mxCell id="JZK24X55Dp6HFnPvQIlC-20" value="" style="edgeStyle=orthogonalEdgeStyle;rounded=0;orthogonalLoop=1;jettySize=auto;html=1;entryX=0.464;entryY=-0.005;entryDx=0;entryDy=0;entryPerimeter=0;" edge="1" parent="1" source="JZK24X55Dp6HFnPvQIlC-4" target="JZK24X55Dp6HFnPvQIlC-6">
          <mxGeometry relative="1" as="geometry">
            <Array as="points">
              <mxPoint x="410" y="150" />
              <mxPoint x="272" y="150" />
            </Array>
          </mxGeometry>
        </mxCell>
        <mxCell id="JZK24X55Dp6HFnPvQIlC-22" style="edgeStyle=orthogonalEdgeStyle;rounded=0;orthogonalLoop=1;jettySize=auto;html=1;entryX=0.5;entryY=0;entryDx=0;entryDy=0;" edge="1" parent="1" source="JZK24X55Dp6HFnPvQIlC-4" target="JZK24X55Dp6HFnPvQIlC-8">
          <mxGeometry relative="1" as="geometry">
            <Array as="points">
              <mxPoint x="410" y="150" />
              <mxPoint x="525" y="150" />
            </Array>
          </mxGeometry>
        </mxCell>
        <mxCell id="JZK24X55Dp6HFnPvQIlC-4" value="Register" style="rounded=0;whiteSpace=wrap;html=1;" vertex="1" parent="1">
          <mxGeometry x="366" y="96" width="90" height="40" as="geometry" />
        </mxCell>
        <mxCell id="JZK24X55Dp6HFnPvQIlC-17" value="" style="edgeStyle=orthogonalEdgeStyle;rounded=0;orthogonalLoop=1;jettySize=auto;html=1;" edge="1" parent="1" source="JZK24X55Dp6HFnPvQIlC-5" target="JZK24X55Dp6HFnPvQIlC-12">
          <mxGeometry relative="1" as="geometry" />
        </mxCell>
        <mxCell id="JZK24X55Dp6HFnPvQIlC-5" value="Citizen" style="rounded=0;whiteSpace=wrap;html=1;" vertex="1" parent="1">
          <mxGeometry x="110" y="177" width="90" height="40" as="geometry" />
        </mxCell>
        <mxCell id="JZK24X55Dp6HFnPvQIlC-16" style="edgeStyle=orthogonalEdgeStyle;rounded=0;orthogonalLoop=1;jettySize=auto;html=1;entryX=0.5;entryY=0;entryDx=0;entryDy=0;" edge="1" parent="1" source="JZK24X55Dp6HFnPvQIlC-6" target="JZK24X55Dp6HFnPvQIlC-15">
          <mxGeometry relative="1" as="geometry" />
        </mxCell>
        <mxCell id="JZK24X55Dp6HFnPvQIlC-25" style="edgeStyle=orthogonalEdgeStyle;rounded=0;orthogonalLoop=1;jettySize=auto;html=1;entryX=0;entryY=0.5;entryDx=0;entryDy=0;" edge="1" parent="1" source="JZK24X55Dp6HFnPvQIlC-6" target="JZK24X55Dp6HFnPvQIlC-13">
          <mxGeometry relative="1" as="geometry">
            <Array as="points">
              <mxPoint x="275" y="270" />
            </Array>
          </mxGeometry>
        </mxCell>
        <mxCell id="JZK24X55Dp6HFnPvQIlC-6" value="Admin" style="rounded=0;whiteSpace=wrap;html=1;" vertex="1" parent="1">
          <mxGeometry x="230" y="177" width="90" height="40" as="geometry" />
        </mxCell>
        <mxCell id="JZK24X55Dp6HFnPvQIlC-7" value="Dept Head" style="rounded=0;whiteSpace=wrap;html=1;" vertex="1" parent="1">
          <mxGeometry x="360" y="177" width="90" height="40" as="geometry" />
        </mxCell>
        <mxCell id="JZK24X55Dp6HFnPvQIlC-57" style="edgeStyle=orthogonalEdgeStyle;rounded=0;orthogonalLoop=1;jettySize=auto;html=1;entryX=0.25;entryY=0;entryDx=0;entryDy=0;" edge="1" parent="1" source="JZK24X55Dp6HFnPvQIlC-8" target="JZK24X55Dp6HFnPvQIlC-30">
          <mxGeometry relative="1" as="geometry" />
        </mxCell>
        <mxCell id="JZK24X55Dp6HFnPvQIlC-8" value="Senior Official" style="rounded=0;whiteSpace=wrap;html=1;" vertex="1" parent="1">
          <mxGeometry x="480" y="177" width="90" height="40" as="geometry" />
        </mxCell>
        <mxCell id="JZK24X55Dp6HFnPvQIlC-18" value="" style="edgeStyle=orthogonalEdgeStyle;rounded=0;orthogonalLoop=1;jettySize=auto;html=1;" edge="1" parent="1" source="JZK24X55Dp6HFnPvQIlC-9" target="JZK24X55Dp6HFnPvQIlC-14">
          <mxGeometry relative="1" as="geometry" />
        </mxCell>
        <mxCell id="JZK24X55Dp6HFnPvQIlC-9" value="Dept Staff" style="rounded=0;whiteSpace=wrap;html=1;" vertex="1" parent="1">
          <mxGeometry x="600" y="177" width="90" height="40" as="geometry" />
        </mxCell>
        <mxCell id="JZK24X55Dp6HFnPvQIlC-11" value="2-step Verification" style="rounded=0;whiteSpace=wrap;html=1;" vertex="1" parent="1">
          <mxGeometry x="110" y="250" width="90" height="40" as="geometry" />
        </mxCell>
        <mxCell id="JZK24X55Dp6HFnPvQIlC-27" style="edgeStyle=orthogonalEdgeStyle;rounded=0;orthogonalLoop=1;jettySize=auto;html=1;entryX=0;entryY=0.5;entryDx=0;entryDy=0;" edge="1" parent="1" source="JZK24X55Dp6HFnPvQIlC-12" target="JZK24X55Dp6HFnPvQIlC-15">
          <mxGeometry relative="1" as="geometry" />
        </mxCell>
        <mxCell id="JZK24X55Dp6HFnPvQIlC-67" style="edgeStyle=orthogonalEdgeStyle;rounded=0;orthogonalLoop=1;jettySize=auto;html=1;entryX=0.5;entryY=0;entryDx=0;entryDy=0;" edge="1" parent="1" source="JZK24X55Dp6HFnPvQIlC-12" target="JZK24X55Dp6HFnPvQIlC-37">
          <mxGeometry relative="1" as="geometry" />
        </mxCell>
        <mxCell id="JZK24X55Dp6HFnPvQIlC-12" value="Add Grivience" style="rounded=0;whiteSpace=wrap;html=1;" vertex="1" parent="1">
          <mxGeometry x="110" y="330" width="90" height="40" as="geometry" />
        </mxCell>
        <mxCell id="JZK24X55Dp6HFnPvQIlC-13" value="Approved" style="rounded=0;whiteSpace=wrap;html=1;" vertex="1" parent="1">
          <mxGeometry x="600" y="250" width="90" height="40" as="geometry" />
        </mxCell>
        <mxCell id="JZK24X55Dp6HFnPvQIlC-54" style="edgeStyle=orthogonalEdgeStyle;rounded=0;orthogonalLoop=1;jettySize=auto;html=1;" edge="1" parent="1">
          <mxGeometry relative="1" as="geometry">
            <mxPoint x="419" y="513" as="targetPoint" />
            <mxPoint x="644" y="353" as="sourcePoint" />
            <Array as="points">
              <mxPoint x="644" y="513" />
            </Array>
          </mxGeometry>
        </mxCell>
        <mxCell id="JZK24X55Dp6HFnPvQIlC-14" value="Assign to Dept" style="rounded=0;whiteSpace=wrap;html=1;" vertex="1" parent="1">
          <mxGeometry x="600" y="320" width="90" height="40" as="geometry" />
        </mxCell>
        <mxCell id="JZK24X55Dp6HFnPvQIlC-48" style="edgeStyle=orthogonalEdgeStyle;rounded=0;orthogonalLoop=1;jettySize=auto;html=1;entryX=0.5;entryY=0;entryDx=0;entryDy=0;" edge="1" parent="1" source="JZK24X55Dp6HFnPvQIlC-15" target="JZK24X55Dp6HFnPvQIlC-28">
          <mxGeometry relative="1" as="geometry" />
        </mxCell>
        <mxCell id="JZK24X55Dp6HFnPvQIlC-49" style="edgeStyle=orthogonalEdgeStyle;rounded=0;orthogonalLoop=1;jettySize=auto;html=1;" edge="1" parent="1" source="JZK24X55Dp6HFnPvQIlC-15">
          <mxGeometry relative="1" as="geometry">
            <mxPoint x="350" y="400" as="targetPoint" />
          </mxGeometry>
        </mxCell>
        <mxCell id="JZK24X55Dp6HFnPvQIlC-15" value="Already present" style="rhombus;whiteSpace=wrap;html=1;" vertex="1" parent="1">
          <mxGeometry x="240" y="320" width="70" height="60" as="geometry" />
        </mxCell>
        <mxCell id="JZK24X55Dp6HFnPvQIlC-21" style="edgeStyle=orthogonalEdgeStyle;rounded=0;orthogonalLoop=1;jettySize=auto;html=1;entryX=0.46;entryY=0.028;entryDx=0;entryDy=0;entryPerimeter=0;" edge="1" parent="1" source="JZK24X55Dp6HFnPvQIlC-4" target="JZK24X55Dp6HFnPvQIlC-5">
          <mxGeometry relative="1" as="geometry">
            <Array as="points">
              <mxPoint x="410" y="150" />
              <mxPoint x="151" y="150" />
            </Array>
          </mxGeometry>
        </mxCell>
        <mxCell id="JZK24X55Dp6HFnPvQIlC-23" style="edgeStyle=orthogonalEdgeStyle;rounded=0;orthogonalLoop=1;jettySize=auto;html=1;entryX=0.474;entryY=-0.013;entryDx=0;entryDy=0;entryPerimeter=0;" edge="1" parent="1" source="JZK24X55Dp6HFnPvQIlC-4" target="JZK24X55Dp6HFnPvQIlC-9">
          <mxGeometry relative="1" as="geometry">
            <Array as="points">
              <mxPoint x="410" y="150" />
              <mxPoint x="643" y="150" />
            </Array>
          </mxGeometry>
        </mxCell>
        <mxCell id="JZK24X55Dp6HFnPvQIlC-28" value="Merge" style="rounded=0;whiteSpace=wrap;html=1;" vertex="1" parent="1">
          <mxGeometry x="190" y="410" width="90" height="40" as="geometry" />
        </mxCell>
        <mxCell id="JZK24X55Dp6HFnPvQIlC-29" value="Assign to dept Head" style="rounded=0;whiteSpace=wrap;html=1;" vertex="1" parent="1">
          <mxGeometry x="297" y="403" width="90" height="40" as="geometry" />
        </mxCell>
        <mxCell id="JZK24X55Dp6HFnPvQIlC-58" style="edgeStyle=orthogonalEdgeStyle;rounded=0;orthogonalLoop=1;jettySize=auto;html=1;entryX=0.5;entryY=0;entryDx=0;entryDy=0;" edge="1" parent="1" source="JZK24X55Dp6HFnPvQIlC-30" target="JZK24X55Dp6HFnPvQIlC-34">
          <mxGeometry relative="1" as="geometry" />
        </mxCell>
        <mxCell id="JZK24X55Dp6HFnPvQIlC-30" value="Esclate" style="rounded=0;whiteSpace=wrap;html=1;" vertex="1" parent="1">
          <mxGeometry x="503" y="620" width="90" height="40" as="geometry" />
        </mxCell>
        <mxCell id="JZK24X55Dp6HFnPvQIlC-53" style="edgeStyle=orthogonalEdgeStyle;rounded=0;orthogonalLoop=1;jettySize=auto;html=1;entryX=0.5;entryY=0;entryDx=0;entryDy=0;" edge="1" parent="1" source="JZK24X55Dp6HFnPvQIlC-31" target="JZK24X55Dp6HFnPvQIlC-32">
          <mxGeometry relative="1" as="geometry" />
        </mxCell>
        <mxCell id="JZK24X55Dp6HFnPvQIlC-31" value="Assign to Staff" style="rounded=0;whiteSpace=wrap;html=1;" vertex="1" parent="1">
          <mxGeometry x="372" y="460" width="90" height="40" as="geometry" />
        </mxCell>
        <mxCell id="JZK24X55Dp6HFnPvQIlC-55" style="edgeStyle=orthogonalEdgeStyle;rounded=0;orthogonalLoop=1;jettySize=auto;html=1;entryX=0.5;entryY=0;entryDx=0;entryDy=0;" edge="1" parent="1" source="JZK24X55Dp6HFnPvQIlC-32" target="JZK24X55Dp6HFnPvQIlC-33">
          <mxGeometry relative="1" as="geometry" />
        </mxCell>
        <mxCell id="JZK24X55Dp6HFnPvQIlC-32" value="Update Status" style="rounded=0;whiteSpace=wrap;html=1;" vertex="1" parent="1">
          <mxGeometry x="372" y="530" width="90" height="40" as="geometry" />
        </mxCell>
        <mxCell id="JZK24X55Dp6HFnPvQIlC-56" value="" style="edgeStyle=orthogonalEdgeStyle;rounded=0;orthogonalLoop=1;jettySize=auto;html=1;" edge="1" parent="1" source="JZK24X55Dp6HFnPvQIlC-33" target="JZK24X55Dp6HFnPvQIlC-30">
          <mxGeometry relative="1" as="geometry" />
        </mxCell>
        <mxCell id="JZK24X55Dp6HFnPvQIlC-64" style="edgeStyle=orthogonalEdgeStyle;rounded=0;orthogonalLoop=1;jettySize=auto;html=1;" edge="1" parent="1" source="JZK24X55Dp6HFnPvQIlC-33" target="JZK24X55Dp6HFnPvQIlC-41">
          <mxGeometry relative="1" as="geometry" />
        </mxCell>
        <mxCell id="JZK24X55Dp6HFnPvQIlC-33" value="Within time completed" style="rhombus;whiteSpace=wrap;html=1;" vertex="1" parent="1">
          <mxGeometry x="381" y="610" width="70" height="60" as="geometry" />
        </mxCell>
        <mxCell id="JZK24X55Dp6HFnPvQIlC-59" style="edgeStyle=orthogonalEdgeStyle;rounded=0;orthogonalLoop=1;jettySize=auto;html=1;entryX=0;entryY=0.5;entryDx=0;entryDy=0;" edge="1" parent="1" source="JZK24X55Dp6HFnPvQIlC-34" target="JZK24X55Dp6HFnPvQIlC-40">
          <mxGeometry relative="1" as="geometry" />
        </mxCell>
        <mxCell id="JZK24X55Dp6HFnPvQIlC-60" style="edgeStyle=orthogonalEdgeStyle;rounded=0;orthogonalLoop=1;jettySize=auto;html=1;entryX=0.5;entryY=0;entryDx=0;entryDy=0;" edge="1" parent="1" source="JZK24X55Dp6HFnPvQIlC-34" target="JZK24X55Dp6HFnPvQIlC-39">
          <mxGeometry relative="1" as="geometry" />
        </mxCell>
        <mxCell id="JZK24X55Dp6HFnPvQIlC-34" value="Check status?" style="rhombus;whiteSpace=wrap;html=1;" vertex="1" parent="1">
          <mxGeometry x="513" y="700" width="70" height="60" as="geometry" />
        </mxCell>
        <mxCell id="JZK24X55Dp6HFnPvQIlC-75" style="edgeStyle=orthogonalEdgeStyle;rounded=0;orthogonalLoop=1;jettySize=auto;html=1;entryX=0;entryY=0.5;entryDx=0;entryDy=0;" edge="1" parent="1" source="JZK24X55Dp6HFnPvQIlC-35" target="JZK24X55Dp6HFnPvQIlC-44">
          <mxGeometry relative="1" as="geometry" />
        </mxCell>
        <mxCell id="JZK24X55Dp6HFnPvQIlC-76" style="edgeStyle=orthogonalEdgeStyle;rounded=0;orthogonalLoop=1;jettySize=auto;html=1;entryX=0.5;entryY=0;entryDx=0;entryDy=0;" edge="1" parent="1" source="JZK24X55Dp6HFnPvQIlC-35" target="JZK24X55Dp6HFnPvQIlC-45">
          <mxGeometry relative="1" as="geometry" />
        </mxCell>
        <mxCell id="JZK24X55Dp6HFnPvQIlC-35" value="Performance better??" style="rhombus;whiteSpace=wrap;html=1;" vertex="1" parent="1">
          <mxGeometry x="386" y="1080" width="70" height="60" as="geometry" />
        </mxCell>
        <mxCell id="JZK24X55Dp6HFnPvQIlC-68" style="edgeStyle=orthogonalEdgeStyle;rounded=0;orthogonalLoop=1;jettySize=auto;html=1;" edge="1" parent="1" source="JZK24X55Dp6HFnPvQIlC-36">
          <mxGeometry relative="1" as="geometry">
            <mxPoint x="160" y="640" as="targetPoint" />
          </mxGeometry>
        </mxCell>
        <mxCell id="JZK24X55Dp6HFnPvQIlC-36" value="Send notification" style="rounded=0;whiteSpace=wrap;html=1;" vertex="1" parent="1">
          <mxGeometry x="200" y="620" width="90" height="40" as="geometry" />
        </mxCell>
        <mxCell id="JZK24X55Dp6HFnPvQIlC-69" style="edgeStyle=orthogonalEdgeStyle;rounded=0;orthogonalLoop=1;jettySize=auto;html=1;entryX=0.5;entryY=0;entryDx=0;entryDy=0;" edge="1" parent="1" source="JZK24X55Dp6HFnPvQIlC-37" target="JZK24X55Dp6HFnPvQIlC-38">
          <mxGeometry relative="1" as="geometry" />
        </mxCell>
        <mxCell id="JZK24X55Dp6HFnPvQIlC-37" value="Provide Feedback" style="rounded=0;whiteSpace=wrap;html=1;" vertex="1" parent="1">
          <mxGeometry x="110" y="690" width="90" height="40" as="geometry" />
        </mxCell>
        <mxCell id="JZK24X55Dp6HFnPvQIlC-70" style="edgeStyle=orthogonalEdgeStyle;rounded=0;orthogonalLoop=1;jettySize=auto;html=1;entryX=0;entryY=0.5;entryDx=0;entryDy=0;" edge="1" parent="1" source="JZK24X55Dp6HFnPvQIlC-38" target="JZK24X55Dp6HFnPvQIlC-42">
          <mxGeometry relative="1" as="geometry">
            <Array as="points">
              <mxPoint x="155" y="940" />
            </Array>
          </mxGeometry>
        </mxCell>
        <mxCell id="JZK24X55Dp6HFnPvQIlC-38" value="Send to Dept head" style="rounded=0;whiteSpace=wrap;html=1;" vertex="1" parent="1">
          <mxGeometry x="110" y="760" width="90" height="40" as="geometry" />
        </mxCell>
        <mxCell id="JZK24X55Dp6HFnPvQIlC-80" style="edgeStyle=orthogonalEdgeStyle;rounded=0;orthogonalLoop=1;jettySize=auto;html=1;" edge="1" parent="1" source="JZK24X55Dp6HFnPvQIlC-39">
          <mxGeometry relative="1" as="geometry">
            <mxPoint x="420" y="810" as="targetPoint" />
          </mxGeometry>
        </mxCell>
        <mxCell id="JZK24X55Dp6HFnPvQIlC-39" value="Send notification to head" style="rounded=0;whiteSpace=wrap;html=1;" vertex="1" parent="1">
          <mxGeometry x="502" y="790" width="90" height="40" as="geometry" />
        </mxCell>
        <mxCell id="JZK24X55Dp6HFnPvQIlC-82" style="edgeStyle=orthogonalEdgeStyle;rounded=0;orthogonalLoop=1;jettySize=auto;html=1;" edge="1" parent="1" source="JZK24X55Dp6HFnPvQIlC-40" target="JZK24X55Dp6HFnPvQIlC-47">
          <mxGeometry relative="1" as="geometry">
            <Array as="points">
              <mxPoint x="675" y="1290" />
            </Array>
          </mxGeometry>
        </mxCell>
        <mxCell id="JZK24X55Dp6HFnPvQIlC-40" value="take action" style="rounded=0;whiteSpace=wrap;html=1;" vertex="1" parent="1">
          <mxGeometry x="630" y="710" width="90" height="40" as="geometry" />
        </mxCell>
        <mxCell id="JZK24X55Dp6HFnPvQIlC-66" style="edgeStyle=orthogonalEdgeStyle;rounded=0;orthogonalLoop=1;jettySize=auto;html=1;" edge="1" parent="1" source="JZK24X55Dp6HFnPvQIlC-41">
          <mxGeometry relative="1" as="geometry">
            <mxPoint x="240" y="670" as="targetPoint" />
          </mxGeometry>
        </mxCell>
        <mxCell id="JZK24X55Dp6HFnPvQIlC-41" value="Deattach staff" style="rounded=0;whiteSpace=wrap;html=1;" vertex="1" parent="1">
          <mxGeometry x="370" y="840" width="90" height="40" as="geometry" />
        </mxCell>
        <mxCell id="JZK24X55Dp6HFnPvQIlC-71" style="edgeStyle=orthogonalEdgeStyle;rounded=0;orthogonalLoop=1;jettySize=auto;html=1;entryX=0.5;entryY=0;entryDx=0;entryDy=0;" edge="1" parent="1" source="JZK24X55Dp6HFnPvQIlC-42" target="JZK24X55Dp6HFnPvQIlC-43">
          <mxGeometry relative="1" as="geometry" />
        </mxCell>
        <mxCell id="JZK24X55Dp6HFnPvQIlC-42" value="Analysis data of Staff" style="rounded=0;whiteSpace=wrap;html=1;" vertex="1" parent="1">
          <mxGeometry x="376" y="920" width="90" height="40" as="geometry" />
        </mxCell>
        <mxCell id="JZK24X55Dp6HFnPvQIlC-74" style="edgeStyle=orthogonalEdgeStyle;rounded=0;orthogonalLoop=1;jettySize=auto;html=1;entryX=0.5;entryY=0;entryDx=0;entryDy=0;" edge="1" parent="1" source="JZK24X55Dp6HFnPvQIlC-43" target="JZK24X55Dp6HFnPvQIlC-35">
          <mxGeometry relative="1" as="geometry" />
        </mxCell>
        <mxCell id="JZK24X55Dp6HFnPvQIlC-43" value="Generate Performance report" style="rounded=0;whiteSpace=wrap;html=1;" vertex="1" parent="1">
          <mxGeometry x="376" y="1000" width="90" height="40" as="geometry" />
        </mxCell>
        <mxCell id="JZK24X55Dp6HFnPvQIlC-81" style="edgeStyle=orthogonalEdgeStyle;rounded=0;orthogonalLoop=1;jettySize=auto;html=1;entryX=1;entryY=0.5;entryDx=0;entryDy=0;" edge="1" parent="1" source="JZK24X55Dp6HFnPvQIlC-44" target="JZK24X55Dp6HFnPvQIlC-47">
          <mxGeometry relative="1" as="geometry">
            <Array as="points">
              <mxPoint x="551" y="1290" />
            </Array>
          </mxGeometry>
        </mxCell>
        <mxCell id="JZK24X55Dp6HFnPvQIlC-44" value="Keep in same position" style="rounded=0;whiteSpace=wrap;html=1;" vertex="1" parent="1">
          <mxGeometry x="506" y="1090" width="90" height="40" as="geometry" />
        </mxCell>
        <mxCell id="JZK24X55Dp6HFnPvQIlC-77" style="edgeStyle=orthogonalEdgeStyle;rounded=0;orthogonalLoop=1;jettySize=auto;html=1;entryX=0.5;entryY=0;entryDx=0;entryDy=0;" edge="1" parent="1" source="JZK24X55Dp6HFnPvQIlC-45" target="JZK24X55Dp6HFnPvQIlC-47">
          <mxGeometry relative="1" as="geometry" />
        </mxCell>
        <mxCell id="JZK24X55Dp6HFnPvQIlC-45" value="Upgrade" style="rounded=0;whiteSpace=wrap;html=1;" vertex="1" parent="1">
          <mxGeometry x="377" y="1185" width="90" height="40" as="geometry" />
        </mxCell>
        <mxCell id="JZK24X55Dp6HFnPvQIlC-47" value="Stop" style="ellipse;whiteSpace=wrap;html=1;" vertex="1" parent="1">
          <mxGeometry x="381" y="1270" width="80" height="40" as="geometry" />
        </mxCell>
        <mxCell id="JZK24X55Dp6HFnPvQIlC-50" value="Yes" style="text;html=1;align=center;verticalAlign=middle;resizable=0;points=[];autosize=1;strokeColor=none;fillColor=none;" vertex="1" parent="1">
          <mxGeometry x="230" y="368" width="40" height="30" as="geometry" />
        </mxCell>
        <mxCell id="JZK24X55Dp6HFnPvQIlC-51" value="No" style="text;html=1;align=center;verticalAlign=middle;resizable=0;points=[];autosize=1;strokeColor=none;fillColor=none;" vertex="1" parent="1">
          <mxGeometry x="347" y="350" width="40" height="30" as="geometry" />
        </mxCell>
        <mxCell id="JZK24X55Dp6HFnPvQIlC-52" style="edgeStyle=orthogonalEdgeStyle;rounded=0;orthogonalLoop=1;jettySize=auto;html=1;entryX=0.364;entryY=0.019;entryDx=0;entryDy=0;entryPerimeter=0;" edge="1" parent="1" source="JZK24X55Dp6HFnPvQIlC-7" target="JZK24X55Dp6HFnPvQIlC-31">
          <mxGeometry relative="1" as="geometry" />
        </mxCell>
        <mxCell id="JZK24X55Dp6HFnPvQIlC-61" value="No" style="text;html=1;align=center;verticalAlign=middle;resizable=0;points=[];autosize=1;strokeColor=none;fillColor=none;" vertex="1" parent="1">
          <mxGeometry x="580" y="688" width="40" height="30" as="geometry" />
        </mxCell>
        <mxCell id="JZK24X55Dp6HFnPvQIlC-62" value="Yes" style="text;html=1;align=center;verticalAlign=middle;resizable=0;points=[];autosize=1;strokeColor=none;fillColor=none;" vertex="1" parent="1">
          <mxGeometry x="552" y="758" width="40" height="30" as="geometry" />
        </mxCell>
        <mxCell id="JZK24X55Dp6HFnPvQIlC-63" value="No" style="text;html=1;align=center;verticalAlign=middle;resizable=0;points=[];autosize=1;strokeColor=none;fillColor=none;" vertex="1" parent="1">
          <mxGeometry x="440" y="618" width="40" height="30" as="geometry" />
        </mxCell>
        <mxCell id="JZK24X55Dp6HFnPvQIlC-65" value="Yes" style="text;html=1;align=center;verticalAlign=middle;resizable=0;points=[];autosize=1;strokeColor=none;fillColor=none;" vertex="1" parent="1">
          <mxGeometry x="412" y="708" width="40" height="30" as="geometry" />
        </mxCell>
        <mxCell id="JZK24X55Dp6HFnPvQIlC-73" style="edgeStyle=orthogonalEdgeStyle;rounded=0;orthogonalLoop=1;jettySize=auto;html=1;entryX=0.423;entryY=0.021;entryDx=0;entryDy=0;entryPerimeter=0;" edge="1" parent="1" source="JZK24X55Dp6HFnPvQIlC-41" target="JZK24X55Dp6HFnPvQIlC-42">
          <mxGeometry relative="1" as="geometry" />
        </mxCell>
        <mxCell id="JZK24X55Dp6HFnPvQIlC-78" value="No" style="text;html=1;align=center;verticalAlign=middle;resizable=0;points=[];autosize=1;strokeColor=none;fillColor=none;" vertex="1" parent="1">
          <mxGeometry x="450" y="1078" width="40" height="30" as="geometry" />
        </mxCell>
        <mxCell id="JZK24X55Dp6HFnPvQIlC-79" value="Yes" style="text;html=1;align=center;verticalAlign=middle;resizable=0;points=[];autosize=1;strokeColor=none;fillColor=none;" vertex="1" parent="1">
          <mxGeometry x="430" y="1138" width="40" height="30" as="geometry" />
        </mxCell>
      </root>
    </mxGraphModel>
  </diagram>
</mxfile>
